<svg id="default" xmlns="http://www.w3.org/2000/svg" viewBox="0 0 24.64853 8.09275"><defs><style>.cls-1{fill:#5d5d5d;}</style></defs><title>default</title><path class="cls-1" d="M1.39849,7.36941v-6.5h.585v5.96H5.25152v.54Z"/><path class="cls-1" d="M10.3814,2.39089A1.37186,1.37186,0,0,0,8.85113,1.27468c-1.66553,0-2.16992,1.51221-2.16992,2.84473S7.1856,6.96413,8.85113,6.96413a1.51872,1.51872,0,0,0,1.60254-1.17041h.62988A2.16362,2.16362,0,0,1,8.85113,7.50466c-1.97168,0-2.79981-1.58447-2.79981-3.38525,0-1.78272.83692-3.38477,2.79981-3.38477,1.062,0,2.07031.48584,2.16064,1.65625Z"/><path class="cls-1" d="M13.96246,7.50466A1.88181,1.88181,0,0,1,12.02691,5.677h.63037c.01807.999.75635,1.28711,1.62939,1.28711.7295,0,1.56641-.42285,1.56641-1.251,0-.64844-.46777-.95459-1.01709-1.13477-1.05322-.35107-2.65576-.68408-2.65576-2.08838A1.893,1.893,0,0,1,14.25054.73464,1.86777,1.86777,0,0,1,16.36626,2.283h-.62988c-.01806-.80127-.74756-1.0083-1.41357-1.0083-.6753,0-1.5127.3418-1.5127,1.13428,0,1.8457,3.67334,1.0083,3.67334,3.25C16.48345,7.07253,15.26812,7.50466,13.96246,7.50466Z"/><path class="cls-1" d="M17.90435,7.36941v-6.5l2.33154.00927A1.6559,1.6559,0,0,1,22.04546,2.4988a1.528,1.528,0,0,1-1.20654,1.46777v.01807A1.60341,1.60341,0,0,1,22.31548,5.6321a1.70515,1.70515,0,0,1-1.93554,1.73731ZM19.90289,3.7322c.75634,0,1.5122-.29688,1.5122-1.1792,0-.94531-.77392-1.13428-1.53906-1.14355H18.48931V3.7322ZM18.48931,6.82937H19.921c1.11621.01806,1.76465-.2793,1.76465-1.27832,0-1.10742-.8916-1.27832-2.11572-1.27832H18.48931Z"/></svg>