<?xml version="1.0" encoding="utf-8"?>
<!-- Generator: Adobe Illustrator 19.1.0, SVG Export Plug-In . SVG Version: 6.00 Build 0)  -->
<svg version="1.1" id="Layer_1" xmlns="http://www.w3.org/2000/svg" xmlns:xlink="http://www.w3.org/1999/xlink" x="0px" y="0px"
	 viewBox="0 0 97.4 94" style="enable-background:new 0 0 97.4 94;" xml:space="preserve">
<style type="text/css">
	.st0{fill:#00AAE5;}
	.st1{fill:#EE2E27;}
	.st2{fill:#575B5E;}
</style>
<g>
	<path class="st0" d="M26.9,51.8c2.4,0,4.3,1.9,4.3,4.3c0,2.4-1.9,4.3-4.3,4.3c-2.4,0-4.3-1.9-4.3-4.3
		C22.6,53.8,24.5,51.8,26.9,51.8L26.9,51.8z"/>
</g>
<g>
	<path class="st0" d="M27,67.8c2,0,3.6,1.6,3.6,3.6c0,2-1.6,3.6-3.6,3.6s-3.6-1.6-3.6-3.6C23.4,69.4,25,67.8,27,67.8L27,67.8z"/>
</g>
<g>
	<path class="st0" d="M26.9,82.4c1.6,0,2.9,1.3,2.9,2.9c0,1.6-1.3,2.9-2.9,2.9c-1.6,0-2.9-1.3-2.9-2.9C24,83.7,25.3,82.4,26.9,82.4
		L26.9,82.4z"/>
</g>
<g>
	<path class="st0" d="M12,51.8c2.4,0,4.3,1.9,4.3,4.3c0,2.4-1.9,4.3-4.3,4.3c-2.4,0-4.3-1.9-4.3-4.3C7.7,53.8,9.6,51.8,12,51.8
		L12,51.8z"/>
</g>
<g>
	<path class="st0" d="M12,67.8c2,0,3.6,1.6,3.6,3.6c0,2-1.6,3.6-3.6,3.6c-2,0-3.6-1.6-3.6-3.6C8.5,69.4,10.1,67.8,12,67.8L12,67.8z"
		/>
</g>
<g>
	<path class="st0" d="M12,82.4c1.6,0,2.9,1.3,2.9,2.9c0,1.6-1.3,2.9-2.9,2.9c-1.6,0-2.9-1.3-2.9-2.9C9.1,83.7,10.4,82.4,12,82.4
		L12,82.4z"/>
</g>
<g>
	<path class="st0" d="M41.9,67.8c2,0,3.6,1.6,3.6,3.6c0,2-1.6,3.6-3.6,3.6c-2,0-3.6-1.6-3.6-3.6C38.3,69.4,39.9,67.8,41.9,67.8
		L41.9,67.8z"/>
</g>
<g>
	<path class="st0" d="M41.9,82.4c1.6,0,2.9,1.3,2.9,2.9c0,1.6-1.3,2.9-2.9,2.9c-1.6,0-2.9-1.3-2.9-2.9C39,83.7,40.3,82.4,41.9,82.4
		L41.9,82.4z"/>
</g>
<g>
	<path class="st0" d="M56.8,67.8c2,0,3.6,1.6,3.6,3.6c0,2-1.6,3.6-3.6,3.6c-2,0-3.6-1.6-3.6-3.6C53.3,69.4,54.9,67.8,56.8,67.8
		L56.8,67.8z"/>
</g>
<g>
	<path class="st0" d="M56.8,82.4c1.6,0,2.9,1.3,2.9,2.9c0,1.6-1.3,2.9-2.9,2.9c-1.6,0-2.9-1.3-2.9-2.9
		C53.9,83.7,55.2,82.4,56.8,82.4L56.8,82.4z"/>
</g>
<g>
	<path class="st0" d="M71.7,67.8c2,0,3.6,1.6,3.6,3.6c0,2-1.6,3.6-3.6,3.6s-3.6-1.6-3.6-3.6C68.2,69.4,69.8,67.8,71.7,67.8
		L71.7,67.8z"/>
</g>
<g>
	<path class="st0" d="M71.7,82.4c1.6,0,2.9,1.3,2.9,2.9c0,1.6-1.3,2.9-2.9,2.9c-1.6,0-2.9-1.3-2.9-2.9
		C68.8,83.7,70.1,82.4,71.7,82.4L71.7,82.4z"/>
</g>
<g>
	<path class="st0" d="M86.7,67.8c2,0,3.6,1.6,3.6,3.6c0,2-1.6,3.6-3.6,3.6c-2,0-3.6-1.6-3.6-3.6C83.1,69.4,84.7,67.8,86.7,67.8
		L86.7,67.8z"/>
</g>
<g>
	<path class="st0" d="M86.7,82.5c1.6,0,2.9,1.3,2.9,2.9c0,1.6-1.3,2.9-2.9,2.9c-1.6,0-2.9-1.3-2.9-2.9
		C83.8,83.8,85.1,82.5,86.7,82.5L86.7,82.5z"/>
</g>
<g>
	<path class="st1" d="M71.7,43.6c-2.4,0-4.3-1.9-4.3-4.3c0-2.4,1.9-4.3,4.3-4.3c2.4,0,4.3,1.9,4.3,4.3C76,41.7,74.1,43.6,71.7,43.6
		L71.7,43.6z"/>
</g>
<g>
	<path class="st1" d="M71.6,27.7c-2,0-3.6-1.6-3.6-3.6c0-2,1.6-3.6,3.6-3.6c2,0,3.6,1.6,3.6,3.6C75.2,26.1,73.6,27.7,71.6,27.7
		L71.6,27.7z"/>
</g>
<g>
	<path class="st1" d="M71.7,13c-1.6,0-2.9-1.3-2.9-2.9c0-1.6,1.3-2.9,2.9-2.9c1.6,0,2.9,1.3,2.9,2.9C74.6,11.7,73.3,13,71.7,13
		L71.7,13z"/>
</g>
<g>
	<path class="st1" d="M86.6,43.6c-2.4,0-4.3-1.9-4.3-4.3c0-2.4,1.9-4.3,4.3-4.3c2.4,0,4.3,1.9,4.3,4.3C90.9,41.7,89,43.6,86.6,43.6
		L86.6,43.6z"/>
</g>
<g>
	<path class="st1" d="M86.6,27.7c-2,0-3.6-1.6-3.6-3.6s1.6-3.6,3.6-3.6c2,0,3.6,1.6,3.6,3.6C90.1,26.1,88.5,27.7,86.6,27.7
		L86.6,27.7z"/>
</g>
<g>
	<path class="st1" d="M86.6,13c-1.6,0-2.9-1.3-2.9-2.9c0-1.6,1.3-2.9,2.9-2.9c1.6,0,2.9,1.3,2.9,2.9C89.5,11.7,88.2,13,86.6,13
		L86.6,13z"/>
</g>
<g>
	<path class="st1" d="M56.7,43.6c-2.4,0-4.3-1.9-4.3-4.3c0-2.4,1.9-4.3,4.3-4.3c2.4,0,4.3,1.9,4.3,4.3C61,41.7,59.1,43.6,56.7,43.6
		L56.7,43.6z"/>
</g>
<g>
	<path class="st1" d="M56.7,27.7c-2,0-3.6-1.6-3.6-3.6s1.6-3.6,3.6-3.6c2,0,3.6,1.6,3.6,3.6C60.3,26.1,58.7,27.7,56.7,27.7
		L56.7,27.7z"/>
</g>
<g>
	<path class="st1" d="M56.7,13c-1.6,0-2.9-1.3-2.9-2.9c0-1.6,1.3-2.9,2.9-2.9c1.6,0,2.9,1.3,2.9,2.9C59.6,11.7,58.3,13,56.7,13
		L56.7,13z"/>
</g>
<g>
	<path class="st1" d="M41.8,43.6c-2.4,0-4.3-1.9-4.3-4.3c0-2.4,1.9-4.3,4.3-4.3c2.4,0,4.3,1.9,4.3,4.3
		C46.2,41.7,44.2,43.6,41.8,43.6L41.8,43.6z"/>
</g>
<g>
	<path class="st1" d="M41.8,27.7c-2,0-3.6-1.6-3.6-3.6s1.6-3.6,3.6-3.6c2,0,3.6,1.6,3.6,3.6C45.3,26.1,43.7,27.7,41.8,27.7
		L41.8,27.7z"/>
</g>
<g>
	<path class="st1" d="M41.8,13c-1.6,0-2.9-1.3-2.9-2.9c0-1.6,1.3-2.9,2.9-2.9c1.6,0,2.9,1.3,2.9,2.9C44.7,11.7,43.4,13,41.8,13
		L41.8,13z"/>
</g>
<g>
	<path class="st1" d="M27,43.6c-2.4,0-4.3-1.9-4.3-4.3c0-2.4,1.9-4.3,4.3-4.3c2.4,0,4.3,1.9,4.3,4.3C31.3,41.7,29.3,43.6,27,43.6
		L27,43.6z"/>
</g>
<g>
	<path class="st1" d="M26.8,27.7c-2,0-3.6-1.6-3.6-3.6s1.6-3.6,3.6-3.6c2,0,3.6,1.6,3.6,3.6C30.4,26.1,28.8,27.7,26.8,27.7
		L26.8,27.7z"/>
</g>
<g>
	<path class="st1" d="M26.9,13c-1.6,0-2.9-1.3-2.9-2.9c0-1.6,1.3-2.9,2.9-2.9c1.6,0,2.9,1.3,2.9,2.9C29.8,11.7,28.5,13,26.9,13
		L26.9,13z"/>
</g>
<g>
	<path class="st1" d="M12,34.9c2.4,0,4.3,1.9,4.3,4.3c0,2.4-1.9,4.3-4.3,4.3c-2.4,0-4.3-1.9-4.3-4.3C7.7,36.8,9.6,34.9,12,34.9
		L12,34.9z"/>
</g>
<g>
	<path class="st1" d="M11.9,27.7c-2,0-3.6-1.6-3.6-3.6s1.6-3.6,3.6-3.6c2,0,3.6,1.6,3.6,3.6C15.5,26.1,13.9,27.7,11.9,27.7
		L11.9,27.7z"/>
</g>
<g>
	<path class="st1" d="M11.9,13C10.3,13,9,11.7,9,10.1s1.3-2.9,2.9-2.9c1.6,0,2.9,1.3,2.9,2.9C14.8,11.7,13.5,13,11.9,13L11.9,13z"/>
</g>
<polygon class="st2" points="39.7,61.2 45.8,61.2 45.8,59.9 41.3,59.9 41.3,50.7 39.7,50.7 39.7,61.2 "/>
<polygon class="st2" points="39.7,61.2 45.8,61.2 45.8,59.9 41.3,59.9 41.3,50.7 39.7,50.7 39.7,61.2 "/>
<path class="st2" d="M61.5,51c-0.8-0.3-1.6-0.4-2.4-0.4c-3.3,0-5.7,2.1-5.7,5.4c0,3.3,2.3,5.5,5.7,5.5c0.6,0,1.6,0,2.5-0.4l-0.1-1.5
	c-0.5,0.3-1.6,0.5-2.4,0.5c-2.2,0-4.1-1.6-4.1-4.1c0-2.4,1.7-4.1,4.1-4.1c0.8,0,1.5,0.2,2.2,0.6L61.5,51L61.5,51z"/>
<path class="st2" d="M61.5,51c-0.8-0.3-1.6-0.4-2.4-0.4c-3.3,0-5.7,2.1-5.7,5.4c0,3.3,2.3,5.5,5.7,5.5c0.6,0,1.6,0,2.5-0.4l-0.1-1.5
	c-0.5,0.3-1.6,0.5-2.4,0.5c-2.2,0-4.1-1.6-4.1-4.1c0-2.4,1.7-4.1,4.1-4.1c0.8,0,1.5,0.2,2.2,0.6L61.5,51L61.5,51z"/>
<path class="st2" d="M74.9,50.9c-0.7-0.3-1.6-0.4-2.3-0.4c-1.9,0-3.5,1-3.5,2.8c0,3.3,4.6,2.6,4.6,4.9c0,1.2-1.2,1.7-2.1,1.7
	c-0.8,0-1.7-0.3-2.2-0.5l-0.2,1.4c0.7,0.2,1.5,0.4,2.2,0.4c2.2,0,3.9-0.9,3.9-3.1c0-3.4-4.6-3-4.6-5c0-1.1,1-1.4,1.9-1.4
	c0.8,0,1.2,0.1,2,0.4L74.9,50.9L74.9,50.9z"/>
<path class="st2" d="M74.9,50.9c-0.7-0.3-1.6-0.4-2.3-0.4c-1.9,0-3.5,1-3.5,2.8c0,3.3,4.6,2.6,4.6,4.9c0,1.2-1.2,1.7-2.1,1.7
	c-0.8,0-1.7-0.3-2.2-0.5l-0.2,1.4c0.7,0.2,1.5,0.4,2.2,0.4c2.2,0,3.9-0.9,3.9-3.1c0-3.4-4.6-3-4.6-5c0-1.1,1-1.4,1.9-1.4
	c0.8,0,1.2,0.1,2,0.4L74.9,50.9L74.9,50.9z"/>
<path class="st2" d="M83.9,61.2h2.9c2.2,0,4.1-0.5,4.1-2.8c0-1.5-1-2.4-2.5-2.5v0c1.4-0.3,2.2-1,2.2-2.5c0-1.9-1.5-2.6-3.8-2.6h-2.9
	V61.2L83.9,61.2z M85.4,56.4h1c1.3,0,2.8,0.2,2.8,1.8c0,1.4-1.3,1.7-2.6,1.7h-1.2V56.4L85.4,56.4z M85.4,52h1.6c0.9,0,2,0.3,2,1.6
	c0,1.5-1.3,1.7-2.8,1.7h-0.9V52L85.4,52z"/>
<path class="st2" d="M83.9,61.2h2.9c2.2,0,4.1-0.5,4.1-2.8c0-1.5-1-2.4-2.5-2.5v0c1.4-0.3,2.2-1,2.2-2.5c0-1.9-1.5-2.6-3.8-2.6h-2.9
	V61.2L83.9,61.2z M85.4,56.4h1c1.3,0,2.8,0.2,2.8,1.8c0,1.4-1.3,1.7-2.6,1.7h-1.2V56.4L85.4,56.4z M85.4,52h1.6c0.9,0,2,0.3,2,1.6
	c0,1.5-1.3,1.7-2.8,1.7h-0.9V52L85.4,52z"/>
</svg>
