<svg xmlns="http://www.w3.org/2000/svg" viewBox="0 0 67.44148 23.81832"><defs><style>.cls-1{fill:#575b5e;}.cls-2{fill:#00aae5;}.cls-3{fill:#ee2e27;}</style></defs><title>default</title><g id="lcsb-long_copy" data-name="lcsb-long copy"><polygon class="cls-1" points="23.998 12.642 25.012 12.642 25.012 12.414 24.257 12.414 24.257 10.836 23.998 10.836 23.998 12.642"/><polygon class="cls-1" points="23.998 12.642 25.012 12.642 25.012 12.414 24.257 12.414 24.257 10.836 23.998 10.836 23.998 12.642"/><path class="cls-1" d="M26.65751,11.32229h-.24328v.61045c0,.32094-.12407.54345-.40085.54345-.21222-.01291-.2794-.163-.2794-.47084v-.68306h-.24309v.78393c0,.35425.1527.56646.494.56646a.47407.47407,0,0,0,.43192-.24046h.00524v.2094h.23542Z"/><path class="cls-1" d="M26.65751,11.32229h-.24328v.61045c0,.32094-.12407.54345-.40085.54345-.21222-.01291-.2794-.163-.2794-.47084v-.68306h-.24309v.78393c0,.35425.1527.56646.494.56646a.47407.47407,0,0,0,.43192-.24046h.00524v.2094h.23542Z"/><polygon class="cls-1" points="27.135 12.642 27.425 12.642 27.751 12.124 28.077 12.642 28.377 12.642 27.911 11.951 28.335 11.322 28.064 11.322 27.771 11.793 27.484 11.322 27.182 11.322 27.611 11.951 27.135 12.642"/><polygon class="cls-1" points="27.135 12.642 27.425 12.642 27.751 12.124 28.077 12.642 28.377 12.642 27.911 11.951 28.335 11.322 28.064 11.322 27.771 11.793 27.484 11.322 27.182 11.322 27.611 11.951 27.135 12.642"/><path class="cls-1" d="M29.84113,12.34418a.782.782,0,0,1-.40628.13194.43165.43165,0,0,1-.43454-.44H29.942c0-.424-.14241-.745-.582-.745a.613.613,0,0,0-.6183.66752.63118.63118,0,0,0,.68268.71393,1.01032,1.01032,0,0,0,.41676-.08534Zm-.84082-.489a.36531.36531,0,0,1,.35444-.36735.333.333,0,0,1,.32862.36735Z"/><path class="cls-1" d="M29.84113,12.34418a.782.782,0,0,1-.40628.13194.43165.43165,0,0,1-.43454-.44H29.942c0-.424-.14241-.745-.582-.745a.613.613,0,0,0-.6183.66752.63118.63118,0,0,0,.68268.71393,1.01032,1.01032,0,0,0,.41676-.08534Zm-.84082-.489a.36531.36531,0,0,1,.35444-.36735.333.333,0,0,1,.32862.36735Z"/><path class="cls-1" d="M30.48426,12.64169h.24328v-.6649c0-.24572.09825-.489.34658-.489.1965,0,.23542.20435.23542.36754v.78635h.24328v-.6649c0-.24572.09806-.489.34658-.489.1965,0,.23524.20435.23524.36754v.78635h.24327v-.84586c0-.28726-.12145-.50471-.45792-.50471a.47041.47041,0,0,0-.40871.25619.38993.38993,0,0,0-.37522-.25619.446.446,0,0,0-.419.22269H30.712v-.19144h-.22775Z"/><path class="cls-1" d="M30.48426,12.64169h.24328v-.6649c0-.24572.09825-.489.34658-.489.1965,0,.23542.20435.23542.36754v.78635h.24328v-.6649c0-.24572.09806-.489.34658-.489.1965,0,.23524.20435.23524.36754v.78635h.24327v-.84586c0-.28726-.12145-.50471-.45792-.50471a.47041.47041,0,0,0-.40871.25619.38993.38993,0,0,0-.37522-.25619.446.446,0,0,0-.419.22269H30.712v-.19144h-.22775Z"/><path class="cls-1" d="M32.95387,12.64175h.2328v-.1862h.00524a.53015.53015,0,0,0,.45007.21708c.39842,0,.56647-.35182.56647-.71393,0-.35426-.18621-.66752-.5689-.66752a.47083.47083,0,0,0-.43735.21221h-.005v-.80188h-.24328Zm.996-.6649c.00524.207-.10349.4991-.36473.4991-.27416,0-.38794-.27154-.38794-.49143,0-.24571.12651-.49666.39056-.49666.26368,0,.36735.251.36211.489"/><path class="cls-1" d="M32.95387,12.64175h.2328v-.1862h.00524a.53015.53015,0,0,0,.45007.21708c.39842,0,.56647-.35182.56647-.71393,0-.35426-.18621-.66752-.5689-.66752a.47083.47083,0,0,0-.43735.21221h-.005v-.80188h-.24328Zm.996-.6649c.00524.207-.10349.4991-.36473.4991-.27416,0-.38794-.27154-.38794-.49143,0-.24571.12651-.49666.39056-.49666C33.85139,11.48786,33.95506,11.73881,33.94982,11.97685Z"/><path class="cls-1" d="M34.61388,11.98194a.67154.67154,0,1,0,1.34253,0,.67154.67154,0,1,0-1.34253,0m.25863,0a.41935.41935,0,1,1,.82528,0,.41935.41935,0,1,1-.82528,0"/><path class="cls-1" d="M34.61388,11.98194a.67154.67154,0,1,0,1.34253,0,.67154.67154,0,1,0-1.34253,0Zm.25863,0a.41935.41935,0,1,1,.82528,0,.41935.41935,0,1,1-.82528,0Z"/><path class="cls-1" d="M37.59054,11.32229h-.24328v.61045c0,.32094-.12407.54345-.40085.54345-.21221-.01291-.2794-.163-.2794-.47084v-.68306h-.24328v.78393c0,.35425.15271.56646.49424.56646a.47407.47407,0,0,0,.43191-.24046h.00524v.2094h.23542Z"/><path class="cls-1" d="M37.59054,11.32229h-.24328v.61045c0,.32094-.12407.54345-.40085.54345-.21221-.01291-.2794-.163-.2794-.47084v-.68306h-.24328v.78393c0,.35425.15271.56646.49424.56646a.47407.47407,0,0,0,.43191-.24046h.00524v.2094h.23542Z"/><path class="cls-1" d="M38.22331,12.64169h.24309v-.60015c0-.33124.14242-.53821.35968-.53821a.35959.35959,0,0,1,.13456.02339v-.21727a.68885.68885,0,0,0-.16057-.01833.40192.40192,0,0,0-.344.2356h-.00524v-.20435h-.22756Z"/><path class="cls-1" d="M38.22331,12.64169h.24309v-.60015c0-.33124.14242-.53821.35968-.53821a.35959.35959,0,0,1,.13456.02339v-.21727a.68885.68885,0,0,0-.16057-.01833.40192.40192,0,0,0-.344.2356h-.00524v-.20435h-.22756Z"/><path class="cls-1" d="M40.61544,11.32222h-.22513v.19669h-.005a.43358.43358,0,0,0-.43472-.22775.63315.63315,0,0,0-.58986.7012.57958.57958,0,0,0,.564.64919.55059.55059,0,0,0,.4424-.20436h.00505v.1295a.3989.3989,0,0,1-.40871.45269,1.00466,1.00466,0,0,1-.47589-.119l-.026.22513a1.33838,1.33838,0,0,0,.47347.09038c.47346,0,.68043-.23018.68043-.631Zm-.62878,1.12283c-.22756,0-.36717-.21727-.36717-.4656,0-.22513.12145-.49161.36717-.49161.25881,0,.3855.23542.3855.50976a.41112.41112,0,0,1-.3855.44745"/><path class="cls-1" d="M40.61544,11.32222h-.22513v.19669h-.005a.43358.43358,0,0,0-.43472-.22775.63315.63315,0,0,0-.58986.7012.57958.57958,0,0,0,.564.64919.55059.55059,0,0,0,.4424-.20436h.00505v.1295a.3989.3989,0,0,1-.40871.45269,1.00466,1.00466,0,0,1-.47589-.119l-.026.22513a1.33838,1.33838,0,0,0,.47347.09038c.47346,0,.68043-.23018.68043-.631Zm-.62878,1.12283c-.22756,0-.36717-.21727-.36717-.4656,0-.22513.12145-.49161.36717-.49161.25881,0,.3855.23542.3855.50976A.41112.41112,0,0,1,39.98666,12.44505Z"/><path class="cls-1" d="M43.55486,10.88252a.99531.99531,0,0,0-.40609-.07766.9.9,0,0,0-.9546.92615.88957.88957,0,0,0,.952.94167,1.12805,1.12805,0,0,0,.41133-.06456L43.542,12.357a.88734.88734,0,0,1-.39318.08814.70656.70656,0,0,1,.01291-1.41252.72676.72676,0,0,1,.37259.10087Z"/><path class="cls-1" d="M43.55486,10.88252a.99531.99531,0,0,0-.40609-.07766.9.9,0,0,0-.9546.92615.88957.88957,0,0,0,.952.94167,1.12805,1.12805,0,0,0,.41133-.06456L43.542,12.357a.88734.88734,0,0,1-.39318.08814.70656.70656,0,0,1,.01291-1.41252.72676.72676,0,0,1,.37259.10087Z"/><path class="cls-1" d="M45.0751,12.34418a.78122.78122,0,0,1-.40609.13194.43164.43164,0,0,1-.43453-.44H45.176c0-.424-.14241-.745-.5818-.745a.61312.61312,0,0,0-.6185.66752.63128.63128,0,0,0,.68306.71393,1.00815,1.00815,0,0,0,.41638-.08534Zm-.84062-.489a.3653.3653,0,0,1,.35443-.36735.333.333,0,0,1,.32843.36735Z"/><path class="cls-1" d="M45.0751,12.34418a.78122.78122,0,0,1-.40609.13194.43164.43164,0,0,1-.43453-.44H45.176c0-.424-.14241-.745-.5818-.745a.61312.61312,0,0,0-.6185.66752.63128.63128,0,0,0,.68306.71393,1.00815,1.00815,0,0,0,.41638-.08534Zm-.84062-.489a.3653.3653,0,0,1,.35443-.36735.333.333,0,0,1,.32843.36735Z"/><path class="cls-1" d="M45.72077,12.64169H45.964v-.61044c0-.32095.12426-.54345.40085-.54345.21241.01291.27959.16318.27959.47084v.683h.24328v-.78392c0-.35444-.15271-.56665-.49424-.56665a.4745.4745,0,0,0-.4321.24084h-.005v-.20959h-.2356Z"/><path class="cls-1" d="M45.72077,12.64169H45.964v-.61044c0-.32095.12426-.54345.40085-.54345.21241.01291.27959.16318.27959.47084v.683h.24328v-.78392c0-.35444-.15271-.56665-.49424-.56665a.4745.4745,0,0,0-.4321.24084h-.005v-.20959h-.2356Z"/><path class="cls-1" d="M48.2214,11.32229h-.34921v-.38288l-.24327.07766v.30522h-.29718v.1965h.29718v.771c0,.26387.15532.38288.40627.38288a.75225.75225,0,0,0,.207-.0363v-.20679a.3004.3004,0,0,1-.16562.0466.20956.20956,0,0,1-.20436-.23561v-.72179h.34921Z"/><path class="cls-1" d="M48.2214,11.32229h-.34921v-.38288l-.24327.07766v.30522h-.29718v.1965h.29718v.771c0,.26387.15532.38288.40627.38288a.75225.75225,0,0,0,.207-.0363v-.20679a.3004.3004,0,0,1-.16562.0466.20956.20956,0,0,1-.20436-.23561v-.72179h.34921Z"/><path class="cls-1" d="M48.79743,12.64169h.24328v-.60015c0-.33124.142-.53821.35967-.53821a.3602.3602,0,0,1,.13456.02339v-.21727a.69014.69014,0,0,0-.16057-.01833.401.401,0,0,0-.34377.2356h-.00543v-.20435h-.22774Z"/><path class="cls-1" d="M48.79743,12.64169h.24328v-.60015c0-.33124.142-.53821.35967-.53821a.3602.3602,0,0,1,.13456.02339v-.21727a.69014.69014,0,0,0-.16057-.01833.401.401,0,0,0-.34377.2356h-.00543v-.20435h-.22774Z"/><path class="cls-1" d="M51.00863,12.34418a.782.782,0,0,1-.40627.13194.43168.43168,0,0,1-.43472-.44h.94186c0-.424-.14241-.745-.58219-.745a.613.613,0,0,0-.6183.66752.63131.63131,0,0,0,.68287.71393,1.01179,1.01179,0,0,0,.41675-.08534Zm-.841-.489a.3653.3653,0,0,1,.35443-.36735.333.333,0,0,1,.32862.36735Z"/><path class="cls-1" d="M51.00863,12.34418a.782.782,0,0,1-.40627.13194.43168.43168,0,0,1-.43472-.44h.94186c0-.424-.14241-.745-.58219-.745a.613.613,0,0,0-.6183.66752.63131.63131,0,0,0,.68287.71393,1.01179,1.01179,0,0,0,.41675-.08534Zm-.841-.489a.3653.3653,0,0,1,.35443-.36735.333.333,0,0,1,.32862.36735Z"/><path class="cls-2" d="M38.29772,13.68059a.82772.82772,0,1,1-.8279.82753.82765.82765,0,0,1,.8279-.82753"/><path class="cls-2" d="M38.31344,16.59175a.68306.68306,0,1,1-.68306.68306.68306.68306,0,0,1,.68306-.68306"/><path class="cls-2" d="M38.30015,19.05191a.61615.61615,0,1,1-.61643.61625.61633.61633,0,0,1,.61643-.61625"/><path class="cls-2" d="M35.286,13.68059a.82772.82772,0,1,1-.8279.82753.82766.82766,0,0,1,.8279-.82753"/><path class="cls-2" d="M35.29233,16.59175a.68306.68306,0,1,1-.68305.68306.68306.68306,0,0,1,.68305-.68306"/><path class="cls-2" d="M35.28838,19.05191a.61615.61615,0,1,1-.61625.61625.61633.61633,0,0,1,.61625-.61625"/><path class="cls-2" d="M41.32608,16.59175a.68306.68306,0,1,1-.68306.68306.68306.68306,0,0,1,.68306-.68306"/><path class="cls-2" d="M41.33632,19.05191a.61615.61615,0,1,1-.61644.61625.61657.61657,0,0,1,.61644-.61625"/><path class="cls-2" d="M44.35172,16.59175a.68306.68306,0,1,1-.68324.68306.6829.6829,0,0,1,.68324-.68306"/><path class="cls-2" d="M44.343,19.05191a.61615.61615,0,1,1-.61626.61625.61645.61645,0,0,1,.61626-.61625"/><path class="cls-2" d="M47.369,16.59175a.68306.68306,0,1,1-.68306.68306.68306.68306,0,0,1,.68306-.68306"/><path class="cls-2" d="M47.35559,19.05191a.61615.61615,0,1,1-.61644.61625.61645.61645,0,0,1,.61644-.61625"/><path class="cls-2" d="M50.38665,16.59175a.68306.68306,0,1,1-.68306.68306.68294.68294,0,0,1,.68306-.68306"/><path class="cls-2" d="M50.38724,19.061a.61625.61625,0,1,1-.61643.61626.61621.61621,0,0,1,.61643-.61626"/><path class="cls-3" d="M47.36142,10.22781a.82771.82771,0,1,1,.82771-.82789.82782.82782,0,0,1-.82771.82789"/><path class="cls-3" d="M47.34565,7.16679a.683.683,0,1,1,.68305-.683.683.683,0,0,1-.68305.683"/><path class="cls-3" d="M47.35618,4.65469a.5602.5602,0,1,1,.56029-.56029.56043.56043,0,0,1-.56029.56029"/><path class="cls-3" d="M50.37319,10.22781a.82771.82771,0,1,1,.82771-.82789.82782.82782,0,0,1-.82771.82789"/><path class="cls-3" d="M50.36677,7.16679a.68305.68305,0,1,1,.68306-.683.683.683,0,0,1-.68306.683"/><path class="cls-3" d="M50.34775,4.67924a.56188.56188,0,1,1,.562-.56179.56183.56183,0,0,1-.562.56179"/><path class="cls-3" d="M44.17569,10.22781a.82771.82771,0,1,1,.82771-.82789.82805.82805,0,0,1-.82771.82789"/><path class="cls-3" d="M44.333,7.16679a.68305.68305,0,1,1,.68306-.683.683.683,0,0,1-.68306.683"/><path class="cls-3" d="M44.32015,4.65469a.5602.5602,0,1,1,.56029-.56029.56015.56015,0,0,1-.56029.56029"/><path class="cls-3" d="M41.32279,10.22781a.82771.82771,0,1,1,.82771-.82789.82781.82781,0,0,1-.82771.82789"/><path class="cls-3" d="M41.30707,7.16679a.68305.68305,0,1,1,.68324-.683.68329.68329,0,0,1-.68324.683"/><path class="cls-3" d="M41.31308,4.65469a.5602.5602,0,1,1,.56029-.56029.56015.56015,0,0,1-.56029.56029"/><path class="cls-3" d="M38.31044,10.22781a.82771.82771,0,1,1,.82771-.82789.828.828,0,0,1-.82771.82789"/><path class="cls-3" d="M38.29014,7.16679a.68305.68305,0,1,1,.68324-.683.68329.68329,0,0,1-.68324.683"/><path class="cls-3" d="M38.30058,4.65469a.5602.5602,0,1,1,.56029-.56029.56014.56014,0,0,1-.56029.56029"/><path class="cls-3" d="M35.28919,8.55016a.82772.82772,0,1,1-.8279.82771.82781.82781,0,0,1,.8279-.82771"/><path class="cls-3" d="M35.27252,7.16679a.68305.68305,0,1,1,.68305-.683.683.683,0,0,1-.68305.683"/><path class="cls-3" d="M35.26894,4.64526a.5602.5602,0,1,1,.56029-.56029.56018.56018,0,0,1-.56029.56029"/><path class="cls-1" d="M40.15682,15.18662h.183v-.84474h.26274V14.194h-.26274v-.107c0-.13437.01946-.23542.177-.23542a.2871.2871,0,0,1,.08759.0116l.00786-.14784a.73573.73573,0,0,0-.12277-.01179c-.27041,0-.33273.15776-.33273.399V14.194h-.23355v.14784h.23355Z"/><path class="cls-1" d="M40.15682,15.18662h.183v-.84474h.26274V14.194h-.26274v-.107c0-.13437.01946-.23542.177-.23542a.2871.2871,0,0,1,.08759.0116l.00786-.14784a.73573.73573,0,0,0-.12277-.01179c-.27041,0-.33273.15776-.33273.399V14.194h-.23355v.14784h.23355Z"/><path class="cls-1" d="M40.81974,14.6904a.50529.50529,0,1,0,1.01017,0,.50529.50529,0,1,0-1.01017,0m.19462,0a.3155.3155,0,1,1,.62093,0,.3155.3155,0,1,1-.62093,0"/><path class="cls-1" d="M40.81974,14.6904a.50529.50529,0,1,0,1.01017,0,.50529.50529,0,1,0-1.01017,0Zm.19462,0a.3155.3155,0,1,1,.62093,0,.3155.3155,0,1,1-.62093,0Z"/><path class="cls-1" d="M42.14648,15.18662h.183v-.45156c0-.24908.107-.40478.27041-.40478a.274.274,0,0,1,.10125.01759v-.16356a.51242.51242,0,0,0-.12071-.01366.3017.3017,0,0,0-.25881.17722h-.00393V14.194h-.17123Z"/><path class="cls-1" d="M42.14648,15.18662h.183v-.45156c0-.24908.107-.40478.27041-.40478a.274.274,0,0,1,.10125.01759v-.16356a.51242.51242,0,0,0-.12071-.01366.3017.3017,0,0,0-.25881.17722h-.00393V14.194h-.17123Z"/><path class="cls-1" d="M44.38506,13.85339a.90367.90367,0,0,0-.28988-.04865c-.24533,0-.436.12838-.436.37,0,.42238.58388.33853.58388.64226a.24321.24321,0,0,1-.26649.22176.826.826,0,0,1-.28221-.06606l-.01965.181a.91014.91014,0,0,0,.27847.05651c.27228,0,.49629-.11509.49629-.405,0-.44764-.58406-.38718-.58406-.64825,0-.142.12856-.181.23747-.181a.60011.60011,0,0,1,.25489.05652Z"/><path class="cls-1" d="M44.38506,13.85339a.90367.90367,0,0,0-.28988-.04865c-.24533,0-.436.12838-.436.37,0,.42238.58388.33853.58388.64226a.24321.24321,0,0,1-.26649.22176.826.826,0,0,1-.28221-.06606l-.01965.181a.91014.91014,0,0,0,.27847.05651c.27228,0,.49629-.11509.49629-.405,0-.44764-.58406-.38718-.58406-.64825,0-.142.12856-.181.23747-.181a.60011.60011,0,0,1,.25489.05652Z"/><path class="cls-1" d="M44.70232,15.60505a.60356.60356,0,0,0,.12463.01366c.24141,0,.31346-.21989.38158-.41058l.36567-1.0141h-.18471l-.27247.82153h-.00393l-.26667-.82153h-.20061l.33684.92652a.53684.53684,0,0,1,.03481.105c0,.01965-.05427.24534-.21783.24534a.27858.27858,0,0,1-.08571-.01572Z"/><path class="cls-1" d="M44.70232,15.60505a.60356.60356,0,0,0,.12463.01366c.24141,0,.31346-.21989.38158-.41058l.36567-1.0141h-.18471l-.27247.82153h-.00393l-.26667-.82153h-.20061l.33684.92652a.53684.53684,0,0,1,.03481.105c0,.01965-.05427.24534-.21783.24534a.27858.27858,0,0,1-.08571-.01572Z"/><path class="cls-1" d="M45.76871,15.15548a.57129.57129,0,0,0,.27247.05446.31221.31221,0,0,0,.34658-.30934c0-.31739-.43-.259-.43-.4613,0-.08177.08159-.1207.17516-.1207a.53592.53592,0,0,1,.19256.05053l.01554-.15944a.7605.7605,0,0,0-.22775-.03893c-.19669,0-.35032.09918-.35032.30541,0,.27846.43.26274.43.44389,0,.10705-.10312.142-.18677.142a.48928.48928,0,0,1-.22793-.07018Z"/><path class="cls-1" d="M45.76871,15.15548a.57129.57129,0,0,0,.27247.05446.31221.31221,0,0,0,.34658-.30934c0-.31739-.43-.259-.43-.4613,0-.08177.08159-.1207.17516-.1207a.53592.53592,0,0,1,.19256.05053l.01554-.15944a.7605.7605,0,0,0-.22775-.03893c-.19669,0-.35032.09918-.35032.30541,0,.27846.43.26274.43.44389,0,.10705-.10312.142-.18677.142a.48928.48928,0,0,1-.22793-.07018Z"/><path class="cls-1" d="M47.2667,14.194h-.26256v-.288l-.18321.05839V14.194H46.5973v.14784h.22363V14.922c0,.19837.11677.288.30559.288a.5708.5708,0,0,0,.1557-.02732V15.027a.22568.22568,0,0,1-.12463.035.15716.15716,0,0,1-.15345-.177v-.54308h.26256Z"/><path class="cls-1" d="M47.2667,14.194h-.26256v-.288l-.18321.05839V14.194H46.5973v.14784h.22363V14.922c0,.19837.11677.288.30559.288a.5708.5708,0,0,0,.1557-.02732V15.027a.22568.22568,0,0,1-.12463.035.15716.15716,0,0,1-.15345-.177v-.54308h.26256Z"/><path class="cls-1" d="M48.34807,14.96286a.58746.58746,0,0,1-.3056.09918.32474.32474,0,0,1-.32692-.33085h.7085c0-.31927-.107-.56049-.4379-.56049a.46115.46115,0,0,0-.465.50229.47469.47469,0,0,0,.51369.53689.76012.76012,0,0,0,.31327-.064Zm-.63252-.36791a.27515.27515,0,0,1,.26667-.27641.25061.25061,0,0,1,.2472.27641Z"/><path class="cls-1" d="M48.34807,14.96286a.58746.58746,0,0,1-.3056.09918.32474.32474,0,0,1-.32692-.33085h.7085c0-.31927-.107-.56049-.4379-.56049a.46115.46115,0,0,0-.465.50229.47469.47469,0,0,0,.51369.53689.76012.76012,0,0,0,.31327-.064Zm-.63252-.36791a.27515.27515,0,0,1,.26667-.27641.25061.25061,0,0,1,.2472.27641Z"/><path class="cls-1" d="M48.758,15.18662h.183v-.50021c0-.1849.07411-.36773.26087-.36773.14784,0,.177.15364.177.27621v.59173h.18283v-.50021c0-.1849.07392-.36773.26088-.36773.148,0,.17722.15364.17722.27621v.59173h.18283v-.63645c0-.21577-.09132-.37952-.34452-.37952a.35377.35377,0,0,0-.30728.19275.29358.29358,0,0,0-.28221-.19275.33571.33571,0,0,0-.31551.16749h-.00375V14.194H48.758Z"/><path class="cls-1" d="M48.758,15.18662h.183v-.50021c0-.1849.07411-.36773.26087-.36773.14784,0,.177.15364.177.27621v.59173h.18283v-.50021c0-.1849.07392-.36773.26088-.36773.148,0,.17722.15364.17722.27621v.59173h.18283v-.63645c0-.21577-.09132-.37952-.34452-.37952a.35377.35377,0,0,0-.30728.19275.29358.29358,0,0,0-.28221-.19275.33571.33571,0,0,0-.31551.16749h-.00375V14.194H48.758Z"/><path class="cls-1" d="M50.49717,15.15548a.57129.57129,0,0,0,.27247.05446.31221.31221,0,0,0,.34658-.30934c0-.31739-.43005-.259-.43005-.4613,0-.08177.0816-.1207.17516-.1207a.53592.53592,0,0,1,.19257.05053l.01553-.15944a.76039.76039,0,0,0-.22775-.03893c-.19668,0-.35032.09918-.35032.30541,0,.27846.43005.26274.43005.44389,0,.10705-.10312.142-.18677.142a.4905.4905,0,0,1-.22793-.07018Z"/><path class="cls-1" d="M50.49717,15.15548a.57129.57129,0,0,0,.27247.05446.31221.31221,0,0,0,.34658-.30934c0-.31739-.43005-.259-.43005-.4613,0-.08177.0816-.1207.17516-.1207a.53592.53592,0,0,1,.19257.05053l.01553-.15944a.76039.76039,0,0,0-.22775-.03893c-.19668,0-.35032.09918-.35032.30541,0,.27846.43005.26274.43005.44389,0,.10705-.10312.142-.18677.142a.4905.4905,0,0,1-.22793-.07018Z"/><path class="cls-1" d="M52.08573,15.18657h.36211c.27622,0,.51781-.07.51781-.36193a.31782.31782,0,0,0-.31551-.32693v-.00393a.31472.31472,0,0,0,.28052-.323c0-.25114-.19481-.34265-.477-.34265h-.36791Zm.19481-.61887h.12632c.16749,0,.35238.02919.35238.23935,0,.183-.15757.22008-.33273.22008h-.146Zm0-.57994h.204c.11322,0,.25133.0408.25133.20248,0,.20043-.15963.21783-.34827.21783h-.107Z"/><path class="cls-1" d="M52.08573,15.18657h.36211c.27622,0,.51781-.07.51781-.36193a.31782.31782,0,0,0-.31551-.32693v-.00393a.31472.31472,0,0,0,.28052-.323c0-.25114-.19481-.34265-.477-.34265h-.36791Zm.19481-.61887h.12632c.16749,0,.35238.02919.35238.23935,0,.183-.15757.22008-.33273.22008h-.146Zm0-.57994h.204c.11322,0,.25133.0408.25133.20248,0,.20043-.15963.21783-.34827.21783h-.107Z"/><path class="cls-1" d="M53.3832,15.18661h.183V14.194h-.183Zm.19462-1.42076h-.20641v.20622h.20641Z"/><path class="cls-1" d="M53.38327,15.18674h.183v-.99259h-.183Zm.19462-1.42095h-.20641V13.972h.20641Z"/><path class="cls-1" d="M53.906,14.6904a.50538.50538,0,1,0,1.01035,0,.50538.50538,0,1,0-1.01035,0m.19481,0a.31542.31542,0,1,1,.62074,0,.31543.31543,0,1,1-.62074,0"/><path class="cls-1" d="M53.906,14.6904a.50538.50538,0,1,0,1.01035,0,.50538.50538,0,1,0-1.01035,0Zm.19481,0a.31542.31542,0,1,1,.62074,0,.31543.31543,0,1,1-.62074,0Z"/><path class="cls-1" d="M55.21129,15.18662h.183v-.50021c0-.1849.07411-.36773.26087-.36773.14765,0,.17685.15364.17685.27621v.59173h.183v-.50021c0-.1849.07392-.36773.26087-.36773.148,0,.17722.15364.17722.27621v.59173H56.636v-.63645c0-.21577-.09169-.37952-.34452-.37952a.35428.35428,0,0,0-.30765.19275.29291.29291,0,0,0-.2822-.19275.33552.33552,0,0,0-.31515.16749h-.00374V14.194h-.17142Z"/><path class="cls-1" d="M55.21129,15.18662h.183v-.50021c0-.1849.07411-.36773.26087-.36773.14765,0,.17685.15364.17685.27621v.59173h.183v-.50021c0-.1849.07392-.36773.26087-.36773.148,0,.17722.15364.17722.27621v.59173H56.636v-.63645c0-.21577-.09169-.37952-.34452-.37952a.35428.35428,0,0,0-.30765.19275.29291.29291,0,0,0-.2822-.19275.33552.33552,0,0,0-.31515.16749h-.00374V14.194h-.17142Z"/><path class="cls-1" d="M57.79541,14.96286a.58933.58933,0,0,1-.3056.09918.32483.32483,0,0,1-.3273-.33085h.7085c0-.31927-.107-.56049-.43771-.56049a.46118.46118,0,0,0-.46523.50229.47469.47469,0,0,0,.5137.53689.76377.76377,0,0,0,.31364-.064Zm-.6329-.36791a.27516.27516,0,0,1,.26667-.27641.25076.25076,0,0,1,.2474.27641Z"/><path class="cls-1" d="M57.79541,14.96286a.58933.58933,0,0,1-.3056.09918.32483.32483,0,0,1-.3273-.33085h.7085c0-.31927-.107-.56049-.43771-.56049a.46118.46118,0,0,0-.46523.50229.47469.47469,0,0,0,.5137.53689.76377.76377,0,0,0,.31364-.064Zm-.6329-.36791a.27516.27516,0,0,1,.26667-.27641.25076.25076,0,0,1,.2474.27641Z"/><path class="cls-1" d="M58.90966,15.18668h.17516V13.727h-.1832v.60334h-.00375a.35365.35365,0,0,0-.3288-.15963.44355.44355,0,0,0-.42817.50209c0,.2706.12632.53727.4263.53727a.39965.39965,0,0,0,.33872-.16356h.00374Zm-.57432-.50022c-.00375-.181.07392-.36791.27247-.36791s.29381.18882.29381.37371c0,.16543-.08553.36979-.29175.36979-.19649,0-.27828-.21989-.27453-.37559"/><path class="cls-1" d="M58.90966,15.18668h.17516V13.727h-.1832v.60334h-.00375a.35365.35365,0,0,0-.3288-.15963.44355.44355,0,0,0-.42817.50209c0,.2706.12632.53727.4263.53727a.39965.39965,0,0,0,.33872-.16356h.00374Zm-.57432-.50022c-.00375-.181.07392-.36791.27247-.36791s.29381.18882.29381.37371c0,.16543-.08553.36979-.29175.36979C58.41338,15.06205,58.33159,14.84216,58.33534,14.68646Z"/><path class="cls-1" d="M59.51011,15.18661h.183V14.194h-.183Zm.1948-1.42076H59.4985v.20622h.20641Z"/><path class="cls-1" d="M59.51014,15.18674h.18321v-.99259h-.18321Zm.19481-1.42095h-.20641V13.972H59.705Z"/><path class="cls-1" d="M60.76492,14.20954a.68774.68774,0,0,0-.22194-.03892.49011.49011,0,0,0-.506.51986.50217.50217,0,0,0,.506.5195.55456.55456,0,0,0,.22961-.041l-.01347-.16337a.38426.38426,0,0,1-.19687.05633.33564.33564,0,0,1-.33067-.37148.33993.33993,0,0,1,.31925-.37184.52633.52633,0,0,1,.19856.04286Z"/><path class="cls-1" d="M60.76492,14.20954a.68774.68774,0,0,0-.22194-.03892.49011.49011,0,0,0-.506.51986.50217.50217,0,0,0,.506.5195.55456.55456,0,0,0,.22961-.041l-.01347-.16337a.38426.38426,0,0,1-.19687.05633.33564.33564,0,0,1-.33067-.37148.33993.33993,0,0,1,.31925-.37184.52633.52633,0,0,1,.19856.04286Z"/><path class="cls-1" d="M61.097,15.18661h.18284V14.194H61.097Zm.19463-1.42076h-.20622v.20622h.20622Z"/><path class="cls-1" d="M61.09715,15.18674H61.28v-.99259h-.18283Zm.19444-1.42095h-.20623V13.972h.20623Z"/><path class="cls-1" d="M61.70559,15.18662h.18283v-.45923c0-.24141.09357-.40871.30167-.40871.15963.00973.21034.12258.21034.35407v.51387h.18265v-.58948c0-.26686-.11453-.42649-.37166-.42649a.35688.35688,0,0,0-.32487.181h-.00393V14.194h-.177Z"/><path class="cls-1" d="M61.70559,15.18662h.18283v-.45923c0-.24141.09357-.40871.30167-.40871.15963.00973.21034.12258.21034.35407v.51387h.18265v-.58948c0-.26686-.11453-.42649-.37166-.42649a.35688.35688,0,0,0-.32487.181h-.00393V14.194h-.177Z"/><path class="cls-1" d="M63.74633,14.96286a.58745.58745,0,0,1-.30559.09918.32475.32475,0,0,1-.32693-.33085h.7085c0-.31927-.107-.56049-.4379-.56049a.46143.46143,0,0,0-.46542.50229.475.475,0,0,0,.51408.53689.76011.76011,0,0,0,.31326-.064Zm-.63252-.36791a.27489.27489,0,0,1,.26667-.27641.25061.25061,0,0,1,.2472.27641Z"/><path class="cls-1" d="M63.74633,14.96286a.58745.58745,0,0,1-.30559.09918.32475.32475,0,0,1-.32693-.33085h.7085c0-.31927-.107-.56049-.4379-.56049a.46143.46143,0,0,0-.46542.50229.475.475,0,0,0,.51408.53689.76011.76011,0,0,0,.31326-.064Zm-.63252-.36791a.27489.27489,0,0,1,.26667-.27641.25061.25061,0,0,1,.2472.27641Z"/></g></svg>