<svg id="default" xmlns="http://www.w3.org/2000/svg" viewBox="0 0 70.20482 10.56943"><defs><style>.cls-1{fill:#5d5d5d;}.cls-2{fill:#575b5e;stroke:#575b5e;stroke-width:0.25px;}</style></defs><title>motto</title><path class="cls-1" d="M7.00127,1.54824h.396V4.07852H8.74053v.356H7.00127Z"/><path class="cls-1" d="M9.54961,2.42764v1.291c0,.19629.044.44385.42774.44385a.54265.54265,0,0,0,.47168-.22363.64879.64879,0,0,0,.084-.376V2.42764h.3877V4.0585c0,.04.00781.26416.01171.376h-.3916L10.533,4.09072a.62916.62916,0,0,1-.63965.36377.64228.64228,0,0,1-.72754-.67968V2.42764Z"/><path class="cls-1" d="M13.42022,4.43447h-.49561l-.57129-.80371-.56787.80371h-.43994l.7959-1.05127-.752-.95556h.49169l.53565.75537.56006-.75537h.44336l-.78321.97949Z"/><path class="cls-1" d="M14.10088,3.49893c-.00781.416.16406.72363.57617.72363a.43648.43648,0,0,0,.47168-.41553h.376a.68671.68671,0,0,1-.17188.41944.869.869,0,0,1-.69238.26806c-.63086,0-.93066-.39209-.93066-1.02734a1.03709,1.03709,0,0,1,.39551-.94385.96534.96534,0,0,1,.54785-.148c.89941,0,.8789.7959.87109,1.12354Zm1.05957-.26367c.00391-.1919-.03222-.5918-.49512-.5918a.53831.53831,0,0,0-.54785.5918Z"/><path class="cls-1" d="M16.09307,2.69522l-.00781-.26758h.37988v.292a.68331.68331,0,0,1,.63574-.34424.63542.63542,0,0,1,.65527.376.72169.72169,0,0,1,.67579-.376.66737.66737,0,0,1,.73535.71192V4.43447h-.37891V3.14736A.494.494,0,0,0,18.72,2.84317a.454.454,0,0,0-.38379-.17579.51335.51335,0,0,0-.42773.21192.828.828,0,0,0-.08789.43164V4.43447h-.37988V3.10733a.40686.40686,0,0,0-.43946-.44.54346.54346,0,0,0-.44043.21973.703.703,0,0,0-.08789.4082V4.43447h-.37988Z"/><path class="cls-1" d="M20.24932,2.71963a.66921.66921,0,0,1,.65527-.34424.82173.82173,0,0,1,.63574.25586,1.05554,1.05554,0,0,1,.23633.75586,1.15725,1.15725,0,0,1-.19238.73145.84716.84716,0,0,1-.70313.34375.79068.79068,0,0,1-.44824-.12793.62244.62244,0,0,1-.19531-.20362l-.00879.30371h-.36328l.00781-.35986V1.54824h.376Zm.56738-.08838c-.57519,0-.57519.67188-.57519.79981,0,.13183,0,.75976.55957.75976.46386,0,.5791-.45215.5791-.77978C21.38018,3.21133,21.34014,2.63125,20.8167,2.63125Z"/><path class="cls-1" d="M23.18877,2.37539a.94648.94648,0,0,1,.9834,1.05176.97849.97849,0,0,1-1.01562,1.0752A.94564.94564,0,0,1,22.16924,3.455.9717.9717,0,0,1,23.18877,2.37539Zm-.02441,1.84717c.28418,0,.6084-.2041.6084-.80762,0-.49951-.23243-.76367-.584-.76367-.24023,0-.62793.15234-.62793.77979C22.56084,3.84268,22.73662,4.22256,23.16436,4.22256Z"/><path class="cls-1" d="M25.10479,2.42764v1.291c0,.19629.04394.44385.42773.44385a.54209.54209,0,0,0,.47168-.22363.64873.64873,0,0,0,.084-.376V2.42764h.38769V4.0585c0,.04.00781.26416.01172.376H26.096l-.00781-.34375a.62916.62916,0,0,1-.63965.36377.64228.64228,0,0,1-.72754-.67968V2.42764Z"/><path class="cls-1" d="M27.2249,2.83535c0-.13574-.00781-.27588-.0205-.40771h.37988l.00879.38769a.54132.54132,0,0,1,.47949-.3955,1.19714,1.19714,0,0,1,.25977-.00831V2.7792a.33249.33249,0,0,0-.07227-.01562.7501.7501,0,0,0-.10742-.0044c-.44434,0-.54785.26416-.54785.60791V4.43447H27.2249Z"/><path class="cls-1" d="M29.12041,4.59024c.0166.22412.11231.39209.46778.39209.52441,0,.53222-.37989.53222-.92383a.69534.69534,0,0,1-.66015.33984.7729.7729,0,0,1-.61524-.24756,1.12481,1.12481,0,0,1-.22754-.73974.88844.88844,0,0,1,.8916-1.01123.69994.69994,0,0,1,.63086.30371l.00391-.27588h.36426l-.00781.36377-.00391,1.25537a1.84544,1.84544,0,0,1-.09668.83154.88221.88221,0,0,1-.835.35986c-.80371,0-.82813-.376-.84375-.64794Zm.876-.67139c.08008-.104.13574-.21192.13574-.57568a.66373.66373,0,0,0-.15625-.5.59215.59215,0,0,0-.43164-.17579c-.47559,0-.53906.48-.53906.73584,0,.30762.0918.71534.55176.71534A.50568.50568,0,0,0,29.99639,3.91885Z"/><path class="cls-1" d="M34.056,2.32754a.54784.54784,0,0,0-.623-.49951c-.69629,0-.82031.71142-.82031,1.1914,0,.54346.15625,1.13135.81641,1.13135a.626.626,0,0,0,.46777-.17187.56908.56908,0,0,0,.13965-.3042h.43945a.97746.97746,0,0,1-1.0791.80371c-1.01563,0-1.21191-.89551-1.21191-1.45508,0-.60791.23632-1.51514,1.26367-1.51514a.925.925,0,0,1,1.03515.81934Z"/><path class="cls-1" d="M35.21319,3.49893c-.00782.416.16406.72363.57519.72363a.436.436,0,0,0,.47168-.41553h.376a.675.675,0,0,1-.17188.41944.86814.86814,0,0,1-.6914.26806c-.63184,0-.93164-.39209-.93164-1.02734a1.03934,1.03934,0,0,1,.3955-.94385.969.969,0,0,1,.54786-.148c.89941,0,.87988.7959.87207,1.12354Zm1.05957-.26367c.0039-.1919-.03223-.5918-.4961-.5918a.53831.53831,0,0,0-.54785.5918Z"/><path class="cls-1" d="M37.221,2.65957l-.00391-.23193h.375l.00489.32373a.6544.6544,0,0,1,.64355-.36377.66945.66945,0,0,1,.72754.68359V4.43447h-.38379V3.15908a.45332.45332,0,0,0-.1084-.34375.51449.51449,0,0,0-.35547-.13574.53264.53264,0,0,0-.52343.59961V4.43447h-.376Z"/><path class="cls-1" d="M39.345,2.41983h.35645V1.9999l.37109-.12011v.54h.44824v.27539h-.44824V3.89883c0,.1001,0,.26758.26856.26758a.815.815,0,0,0,.17968-.02v.292a1.833,1.833,0,0,1-.31152.02393c-.34473,0-.50781-.09961-.50781-.42774V2.69522H39.345Z"/><path class="cls-1" d="M41.00518,2.83535c0-.13574-.00781-.27588-.02051-.40771h.37988l.00879.38769a.54133.54133,0,0,1,.47949-.3955,1.19715,1.19715,0,0,1,.25977-.00831V2.7792a.33249.33249,0,0,0-.07227-.01562.75.75,0,0,0-.10742-.0044c-.44433,0-.54785.26416-.54785.60791V4.43447h-.37988Z"/><path class="cls-1" d="M42.76885,3.49893c-.00781.416.16406.72363.5752.72363a.436.436,0,0,0,.47168-.41553h.376a.67494.67494,0,0,1-.17187.41944.86817.86817,0,0,1-.69141.26806c-.63184,0-.93164-.39209-.93164-1.02734a1.03935,1.03935,0,0,1,.39551-.94385.96891.96891,0,0,1,.54785-.148c.89941,0,.87988.7959.87207,1.12354Zm1.05957-.26367c.00391-.1919-.03223-.5918-.49609-.5918a.53831.53831,0,0,0-.54785.5918Z"/><path class="cls-1" d="M46.88018,1.828c-.06348-.00391-.14356-.0083-.21973-.0083-.30371,0-.30371.15185-.30371.292v.31592h.46777v.272h-.46777V4.43447h-.37207V2.69961h-.39551v-.272h.39551v-.228a.78693.78693,0,0,1,.084-.47949.562.562,0,0,1,.50391-.22022,2.16469,2.16469,0,0,1,.30762.02832Z"/><path class="cls-1" d="M48.08037,2.37539a.94648.94648,0,0,1,.9834,1.05176.97849.97849,0,0,1-1.01562,1.0752A.94564.94564,0,0,1,47.06084,3.455.9717.9717,0,0,1,48.08037,2.37539ZM48.056,4.22256c.28418,0,.6084-.2041.6084-.80762,0-.49951-.23242-.76367-.584-.76367-.24023,0-.62793.15234-.62793.77979C47.45244,3.84268,47.62823,4.22256,48.056,4.22256Z"/><path class="cls-1" d="M49.67217,2.83535c0-.13574-.00781-.27588-.01953-.40771h.37988l.00781.38769a.54232.54232,0,0,1,.4795-.3955,1.19917,1.19917,0,0,1,.25976-.00831V2.7792a.32267.32267,0,0,0-.07129-.01562.772.772,0,0,0-.1084-.0044c-.44335,0-.54785.26416-.54785.60791V4.43447h-.37988Z"/><path class="cls-1" d="M7.26934,8.39053c.00781.20019.03223.57178.6958.57178.59961,0,.67529-.37159.67529-.51563,0-.32373-.25976-.38769-.66357-.48779A2.56915,2.56915,0,0,1,7.19317,7.703a.651.651,0,0,1-.29981-.56738c0-.58789.55567-.84375,1.09961-.84375a1.12966,1.12966,0,0,1,.81152.28369.73861.73861,0,0,1,.17579.4917H8.56475c-.02-.35938-.32373-.43946-.60791-.43946-.39942,0-.63965.17969-.63965.46778,0,.25586.168.34375.52.42773a2.72069,2.72069,0,0,1,.93115.30371.66125.66125,0,0,1,.28809.57569c0,.51171-.3999.89941-1.13965.89941a1.16042,1.16042,0,0,1-.89551-.32764.905.905,0,0,1-.168-.584Z"/><path class="cls-1" d="M10.473,9.24649l-.28808.74755h-.3877l.30371-.76757-.83545-1.999h.42383l.62793,1.583.63965-1.583h.40771Z"/><path class="cls-1" d="M12.00957,8.63858c-.00439.15185.07569.36377.43946.36377a.41.41,0,0,0,.35205-.12793.312.312,0,0,0,.064-.188c0-.1958-.14014-.23194-.43994-.29981-.41992-.0957-.77148-.17969-.77148-.59961,0-.36767.31982-.60742.78369-.60742a.81037.81037,0,0,1,.72363.31152.64018.64018,0,0,1,.05176.292h-.38379c.01221-.30371-.252-.32764-.3877-.32764-.05615,0-.40771,0-.40771.2876,0,.18408.17969.228.28369.25586.55566.13183.67578.16406.79541.27588a.49585.49585,0,0,1,.15186.37158.60736.60736,0,0,1-.27149.50781,1.12859,1.12859,0,0,1-.5957.13623c-.40772,0-.7876-.168-.78369-.65185Z"/><path class="cls-1" d="M13.48565,7.21963h.35547V6.79971l.37207-.12012v.54h.44726V7.495h-.44726V8.69863c0,.1001,0,.26758.26757.26758a.79952.79952,0,0,0,.17969-.02v.292a1.82377,1.82377,0,0,1-.31152.02393c-.34375,0-.50781-.09961-.50781-.42773V7.495h-.35547Z"/><path class="cls-1" d="M15.35283,8.29873c-.00781.416.16407.72363.57618.72363a.43648.43648,0,0,0,.47168-.41552h.376a.68664.68664,0,0,1-.17187.41943.869.869,0,0,1-.69239.26807c-.63085,0-.93066-.39209-.93066-1.02735a1.03707,1.03707,0,0,1,.39551-.94384.96526.96526,0,0,1,.54785-.14795c.89941,0,.87891.7959.87109,1.12353Zm1.05957-.26367c.00391-.19189-.03222-.5918-.49511-.5918a.53831.53831,0,0,0-.54785.5918Z"/><path class="cls-1" d="M17.345,7.495l-.00781-.26758h.37988v.292a.68333.68333,0,0,1,.63574-.34423.63544.63544,0,0,1,.65528.376.72168.72168,0,0,1,.67578-.376.66735.66735,0,0,1,.73535.71191V9.23428h-.37891V7.94717A.49409.49409,0,0,0,19.972,7.643a.454.454,0,0,0-.38379-.17578.51339.51339,0,0,0-.42774.21191.828.828,0,0,0-.08789.43164V9.23428h-.37988V7.90713a.40685.40685,0,0,0-.43945-.43994.54345.54345,0,0,0-.44043.21973.703.703,0,0,0-.0879.4082V9.23428H17.345Z"/><path class="cls-1" d="M21.34112,8.63858c-.00391.15185.07617.36377.43945.36377a.411.411,0,0,0,.35254-.12793.31152.31152,0,0,0,.06347-.188c0-.1958-.13964-.23194-.43945-.29981-.41992-.0957-.77148-.17969-.77148-.59961,0-.36767.31933-.60742.7832-.60742a.81036.81036,0,0,1,.72363.31152.64018.64018,0,0,1,.05176.292h-.38379c.0127-.30371-.252-.32764-.38769-.32764-.05567,0-.40723,0-.40723.2876,0,.18408.17969.228.2832.25586.55567.13183.67578.16406.7959.27588a.49529.49529,0,0,1,.15137.37158.60619.60619,0,0,1-.27149.50781,1.12859,1.12859,0,0,1-.5957.13623c-.40723,0-.78711-.168-.7832-.65185Z"/><path class="cls-1" d="M24.26494,6.34805h1.03125a.90984.90984,0,0,1,.72754.21191.68616.68616,0,0,1,.2041.51563.64535.64535,0,0,1-.4873.65136.69216.69216,0,0,1,.5752.71973.77442.77442,0,0,1-.34766.65576,1.11866,1.11866,0,0,1-.65137.13184H24.26494Zm.3877,1.21924h.55957c.13672,0,.59961,0,.59961-.45606,0-.43555-.36328-.43555-.583-.43555h-.57617Zm0,1.34326h.68359a.50263.50263,0,0,0,.56836-.5.49406.49406,0,0,0-.55176-.49951h-.70019Z"/><path class="cls-1" d="M26.86944,6.35586h.45117v.41162h-.45117Zm.04.87158h.375V9.23428h-.375Z"/><path class="cls-1" d="M28.889,7.1752a.94647.94647,0,0,1,.9834,1.05175.97849.97849,0,0,1-1.01563,1.0752.94562.94562,0,0,1-.9873-1.04736A.97169.97169,0,0,1,28.889,7.1752Zm-.02442,1.84716c.28418,0,.6084-.2041.6084-.80761,0-.49951-.23242-.76367-.584-.76367-.24024,0-.62793.15234-.62793.77978C28.261,8.64248,28.43682,9.02236,28.86455,9.02236Z"/><path class="cls-1" d="M30.45733,7.495l-.00782-.26758h.37989v.292a.68166.68166,0,0,1,.63574-.34423.63641.63641,0,0,1,.65527.376.71913.71913,0,0,1,.67578-.376.66777.66777,0,0,1,.73536.71191V9.23428h-.37989V7.94717a.494.494,0,0,0-.06836-.3042.45126.45126,0,0,0-.38379-.17578.51655.51655,0,0,0-.42773.21191.828.828,0,0,0-.08789.43164V9.23428H31.804V7.90713a.40685.40685,0,0,0-.43946-.43994.54111.54111,0,0,0-.43945.21973.703.703,0,0,0-.08789.4082V9.23428h-.37988Z"/><path class="cls-1" d="M34.46514,8.29873c-.00781.416.16406.72363.57519.72363a.43594.43594,0,0,0,.47168-.41552h.376a.67489.67489,0,0,1-.17187.41943.86813.86813,0,0,1-.69141.26807c-.63184,0-.93164-.39209-.93164-1.02735a1.03933,1.03933,0,0,1,.39551-.94384.96882.96882,0,0,1,.54785-.14795c.89941,0,.87988.7959.87207,1.12353Zm1.05957-.26367c.00391-.19189-.03223-.5918-.49609-.5918a.53832.53832,0,0,0-.54786.5918Z"/><path class="cls-1" d="M37.85283,6.352h.375v2.5625c0,.04395.00879.21582.01661.31983h-.376l-.00781-.31983a.57569.57569,0,0,1-.17969.21192.91409.91409,0,0,1-.49609.14795c-.26758,0-.86329-.14014-.86329-1.01953,0-.76368.43555-1.09522.90723-1.09522a.649.649,0,0,1,.624.33985Zm-.14062,1.291a.54364.54364,0,0,0-.43945-.20361c-.55176,0-.55176.66748-.55176.80371,0,.35547.0918.76758.55176.76758.59179,0,.59179-.65186.59179-.80762A.85926.85926,0,0,0,37.71221,7.643Z"/><path class="cls-1" d="M38.86944,6.35586h.45117v.41162h-.45117Zm.04.87158h.375V9.23428h-.375Z"/><path class="cls-1" d="M41.16045,7.871a.39642.39642,0,0,0-.40039-.41992c-.51953,0-.51953.604-.51953.75585,0,.41163.10059.79542.5.79542a.41744.41744,0,0,0,.43555-.43555H41.556a.758.758,0,0,1-.81152.71924.90361.90361,0,0,1-.65918-.25977,1.08451,1.08451,0,0,1-.24024-.76758c0-.83545.51172-1.08349.91113-1.08349a.81731.81731,0,0,1,.61622.248.69791.69791,0,0,1,.168.44776Z"/><path class="cls-1" d="M41.98076,6.35586h.45215v.41162h-.45215Zm.04.87158h.376V9.23428h-.376Z"/><path class="cls-1" d="M43.14092,7.45938,43.137,7.22744h.376l.00391.32373a.65441.65441,0,0,1,.64355-.36377.66945.66945,0,0,1,.72754.6836V9.23428H44.5042V7.95889a.45269.45269,0,0,0-.10742-.34375.51855.51855,0,0,0-.35645-.13574.53315.53315,0,0,0-.52343.59961V9.23428h-.376Z"/><path class="cls-1" d="M45.80108,8.29873c-.00782.416.16406.72363.57519.72363a.436.436,0,0,0,.47168-.41552h.376a.67492.67492,0,0,1-.17188.41943.86811.86811,0,0,1-.6914.26807c-.63184,0-.93164-.39209-.93164-1.02735a1.03932,1.03932,0,0,1,.3955-.94384.96887.96887,0,0,1,.54786-.14795c.89941,0,.87988.7959.87207,1.12353Zm1.05957-.26367c.0039-.19189-.03223-.5918-.4961-.5918a.53831.53831,0,0,0-.54785.5918Z"/><line class="cls-2" x1="2.22959" y1="0.12999" x2="2.22959" y2="10.66384"/></svg>