<svg id="Layer_1" data-name="Layer 1" xmlns="http://www.w3.org/2000/svg" viewBox="0 0 74.49 61.04"><title>r3-logo</title><path d="M6.36,5.4H24.93c2.67,0,8.14,0,12,2.45a12.21,12.21,0,0,1,5.76,10.59A12.6,12.6,0,0,1,32.86,31c5,1.29,7.2,3.53,7.92,10C41.5,47.17,42,51.63,44,57.39H36.31c-1.15-3.45-1.87-9.79-2.37-13.75-.87-7.56-2.67-9.72-11.38-9.72H13.49V57.39H6.36Zm7,22.4H24.72c.79,0,4.9,0,6.84-1.15a7.39,7.39,0,0,0,3.53-6.77c0-8.43-7.49-8.43-10.37-8.43H13.34Z" style="fill:#00aae5"/><path d="M54.23,26.89c0,2.69,1.77,4.6,5.33,4.6,4.08,0,5.8-2.52,5.8-5a4.91,4.91,0,0,0-4.2-5,16.64,16.64,0,0,0-4-.21V18c2.9.25,7.77-.32,7.77-4.88,0-3.18-2.23-4.44-5.13-4.44-2.18,0-4.91.94-5.29,4.44H50.24c.26-7,7.06-7.7,9.41-7.7,6.34,0,9.48,3.71,9.48,7.62,0,2.32-1.3,5.66-5.79,6.63a6.67,6.67,0,0,1,6.21,6.84c0,3.95-3.31,8.31-10.07,8.31-3.06,0-6.13-.86-8-2.93a7.3,7.3,0,0,1-1.72-5Z" style="fill:#ee2e27"/></svg>