<?xml version="1.0" encoding="UTF-8" standalone="no"?>
<svg
   xmlns:dc="http://purl.org/dc/elements/1.1/"
   xmlns:cc="http://creativecommons.org/ns#"
   xmlns:rdf="http://www.w3.org/1999/02/22-rdf-syntax-ns#"
   xmlns:svg="http://www.w3.org/2000/svg"
   xmlns="http://www.w3.org/2000/svg"
   xmlns:sodipodi="http://sodipodi.sourceforge.net/DTD/sodipodi-0.dtd"
   viewBox="0 0 19.250001 16.664865"
   version="1.1"
   id="svg4860"
   sodipodi:docname="uni-logo.svg"
   width="77"
   height="66"
>
  <metadata
     id="metadata4864">
    <rdf:RDF>
      <cc:Work
         rdf:about="">
        <dc:format>image/svg+xml</dc:format>
        <dc:type
           rdf:resource="http://purl.org/dc/dcmitype/StillImage" />
        <dc:title>uni-logo</dc:title>
      </cc:Work>
    </rdf:RDF>
  </metadata>
  <sodipodi:namedview
     pagecolor="#ffffff"
     bordercolor="#666666"
     borderopacity="1"
     objecttolerance="10"
     gridtolerance="10"
     guidetolerance="10"
     id="namedview4862"
     showgrid="false"
  />
  <defs
     id="defs4479">
    <style
       id="style4477">.cls-1{fill:none;stroke:#60605e;stroke-width:0.333px;}.cls-2{fill:#626665;}.cls-3{fill:#17a8e1;}.cls-4{fill:#ed3028;}.cls-5{fill:#5d5d5d;}.cls-6,.cls-7{fill:#575b5e;}.cls-6{stroke:#575b5e;stroke-width:0.25px;}.cls-8{fill:#00aae5;}.cls-9{fill:#ee2e27;}</style>
  </defs>
  <title
     id="title4481">uni-logo</title>
  <g
     id="header"
     transform="translate(-30.42637,-16.859634)">
    <path
       class="cls-2"
       d="m 31.214602,30.286715 a 0.68189,0.68189 0 0 1 -0.723,-0.731 v -1.152 h 0.256 v 1.152 a 0.43976,0.43976 0 0 0 0.467,0.492 0.447,0.447 0 0 0 0.474,-0.492 v -1.152 h 0.251 v 1.152 a 0.69771,0.69771 0 0 1 -0.725,0.731"
       id="path4485"
       style="fill:#626665" />
    <polygon
       class="cls-2"
       points="35.013,19.192 35.228,19.192 36.187,20.509 36.219,20.562 36.214,20.501 36.214,19.192 36.467,19.192 36.467,21.044 36.265,21.044 35.293,19.702 35.261,19.652 35.265,19.712 35.265,21.044 35.013,21.044 "
       id="polygon4487"
       style="fill:#626665"
       transform="translate(-2.5723975,9.2110142)" />
    <rect
       class="cls-2"
       x="34.408604"
       y="28.403013"
       width="0.25400001"
       height="1.85101"
       id="rect4489"
       style="fill:#626665" />
    <polygon
       class="cls-2"
       points="38.351,20.593 38.365,20.529 38.837,19.192 39.079,19.192 38.43,21.044 38.272,21.044 37.62,19.192 37.866,19.192 38.335,20.529 "
       id="polygon4491"
       style="fill:#626665"
       transform="translate(-2.5723975,9.2110142)" />
    <polygon
       class="cls-2"
       points="39.719,20.26 39.719,20.805 40.548,20.805 40.548,21.044 39.465,21.044 39.465,19.192 40.5,19.192 40.5,19.432 39.719,19.432 39.719,20.022 40.482,20.022 40.482,20.26 "
       id="polygon4493"
       style="fill:#626665"
       transform="translate(-2.5723975,9.2110142)" />
    <path
       class="cls-2"
       d="m 38.980382,28.643405 h -0.3 v 0.636 h 0.294 a 0.32933,0.32933 0 0 0 0.362,-0.341 0.32591,0.32591 0 0 0 -0.356,-0.295 m 0.448,1.612 -0.748,-0.864 v 0.864 h -0.253 v -1.852 h 0.599 a 0.54416,0.54416 0 0 1 0.573,0.546 0.53707,0.53707 0 0 1 -0.528,0.53 l 0.682,0.776 z"
       id="path4495"
       style="fill:#626665" />
    <path
       class="cls-2"
       d="m 40.573702,30.286715 a 0.83093,0.83093 0 0 1 -0.544,-0.188 l 0.146,-0.197 a 0.60972,0.60972 0 0 0 0.385,0.138 c 0.188,0 0.317,-0.084 0.317,-0.257 0,-0.158 -0.145,-0.245 -0.309,-0.329 -0.265,-0.135 -0.533,-0.25 -0.533,-0.603 a 0.48,0.48 0 0 1 0.535,-0.477 0.86511,0.86511 0 0 1 0.5,0.157 l -0.137,0.209 a 0.55,0.55 0 0 0 -0.365,-0.117 c -0.145,0 -0.267,0.072 -0.267,0.213 0,0.2 0.178,0.268 0.406,0.382 0.211,0.104 0.434,0.238 0.434,0.549 a 0.52088,0.52088 0 0 1 -0.568,0.52"
       id="path4497"
       style="fill:#626665" />
    <rect
       class="cls-2"
       x="41.557594"
       y="28.403013"
       width="0.25400001"
       height="1.85101"
       id="rect4499"
       style="fill:#626665" />
    <polygon
       class="cls-2"
       points="45.435,19.432 45.435,21.044 45.181,21.044 45.181,19.432 44.803,19.432 44.803,19.192 45.828,19.192 45.828,19.432 "
       id="polygon4501"
       style="fill:#626665"
       transform="translate(-2.5723975,9.2110142)" />
    <path
       class="cls-2"
       d="m 44.272092,28.257425 h -0.243 l 0.236,-0.374 h 0.243 z m -0.598,1.998 v -1.852 h 1.034 v 0.24 h -0.781 v 0.59 h 0.764 v 0.238 h -0.764 v 0.545 h 0.83 v 0.239 z"
       id="path4503"
       style="fill:#626665" />
    <path
       class="cls-2"
       d="m 46.700292,28.632425 h -0.213 v 1.395 h 0.165 a 0.70006,0.70006 0 1 0 0.048,-1.395 m -0.017,1.623 h -0.45 v -1.852 h 0.471 a 0.9094,0.9094 0 0 1 0.99,0.921 0.92833,0.92833 0 0 1 -1.011,0.931"
       id="path4505"
       style="fill:#626665" />
    <path
       class="cls-2"
       d="m 48.841402,30.286715 a 0.68189,0.68189 0 0 1 -0.723,-0.731 v -1.152 h 0.256 v 1.152 a 0.44021,0.44021 0 0 0 0.467,0.492 0.44657,0.44657 0 0 0 0.474,-0.492 v -1.152 h 0.251 v 1.152 a 0.69718,0.69718 0 0 1 -0.725,0.731"
       id="path4507"
       style="fill:#626665" />
    <rect
       class="cls-2"
       x="30.302614"
       y="26.901003"
       width="19.45599"
       height="0.26699999"
       id="rect4509"
       style="fill:#626665" />
    <polygon
       class="cls-2"
       points="33.326,22.41 33.326,24.024 34.028,24.024 34.028,24.263 33.072,24.263 33.072,22.41 "
       id="polygon4511"
       style="fill:#626665"
       transform="translate(-2.5723975,9.2110142)" />
    <path
       class="cls-2"
       d="m 32.659302,33.504915 a 0.6806,0.6806 0 0 1 -0.723,-0.73 v -1.153 h 0.256 v 1.153 a 0.43976,0.43976 0 0 0 0.467,0.492 0.447,0.447 0 0 0 0.474,-0.492 v -1.153 h 0.251 v 1.153 a 0.69691,0.69691 0 0 1 -0.725,0.73"
       id="path4513"
       style="fill:#626665" />
    <polygon
       class="cls-2"
       points="36.834,22.41 37.191,22.96 37.248,23.055 37.309,22.955 37.667,22.41 37.959,22.41 37.394,23.273 38.037,24.263 37.731,24.263 37.317,23.631 37.239,23.502 37.154,23.637 36.743,24.263 36.45,24.263 37.092,23.285 36.524,22.41 "
       id="polygon4515"
       style="fill:#626665"
       transform="translate(-2.5723975,9.2110142)" />
    <polygon
       class="cls-2"
       points="38.791,23.48 38.791,24.024 39.62,24.024 39.62,24.263 38.537,24.263 38.537,22.41 39.572,22.41 39.572,22.651 38.791,22.651 38.791,23.241 39.555,23.241 39.555,23.48 "
       id="polygon4517"
       style="fill:#626665"
       transform="translate(-2.5723975,9.2110142)" />
    <polygon
       class="cls-2"
       points="41.83,22.829 41.804,22.874 41.222,23.657 41.122,23.657 40.536,22.893 40.511,22.854 40.516,22.921 40.516,24.263 40.262,24.263 40.262,22.41 40.477,22.41 41.175,23.317 41.853,22.41 42.079,22.41 42.079,24.263 41.825,24.263 41.825,22.901 "
       id="polygon4519"
       style="fill:#626665"
       transform="translate(-2.5723975,9.2110142)" />
    <path
       class="cls-2"
       d="m 40.762392,32.685245 h -0.299 v 0.55 h 0.273 c 0.229,0 0.335,-0.111 0.335,-0.283 a 0.2734,0.2734 0 0 0 -0.309,-0.267 m -0.106,-0.823 h -0.193 v 0.585 h 0.17 c 0.276,0 0.339,-0.167 0.339,-0.323 0,-0.165 -0.109,-0.262 -0.316,-0.262 m 0.109,1.612 h -0.556 v -1.853 h 0.489 a 0.49022,0.49022 0 0 1 0.539,0.483 0.47986,0.47986 0 0 1 -0.213,0.426 0.47405,0.47405 0 0 1 0.311,0.442 0.51091,0.51091 0 0 1 -0.57,0.502"
       id="path4521"
       style="fill:#626665" />
    <path
       class="cls-2"
       d="m 42.703492,31.841925 a 0.66212,0.66212 0 0 0 -0.677,0.702 0.69843,0.69843 0 0 0 0.686,0.713 0.68138,0.68138 0 0 0 0.683,-0.718 0.66938,0.66938 0 0 0 -0.692,-0.697 m 0.009,1.663 a 0.93744,0.93744 0 0 1 -0.951,-0.961 0.94900211,0.94900211 0 1 1 1.898,0.004 0.9448,0.9448 0 0 1 -0.947,0.957"
       id="path4523"
       style="fill:#626665" />
    <path
       class="cls-2"
       d="m 44.881902,33.504915 a 0.68032,0.68032 0 0 1 -0.722,-0.73 v -1.153 h 0.256 v 1.153 a 0.43906,0.43906 0 0 0 0.466,0.492 0.44728,0.44728 0 0 0 0.475,-0.492 v -1.153 h 0.252 v 1.153 a 0.69851,0.69851 0 0 1 -0.727,0.73"
       id="path4525"
       style="fill:#626665" />
    <path
       class="cls-2"
       d="m 46.736792,31.862215 h -0.298 v 0.634 h 0.293 a 0.31949,0.31949 0 1 0 0.005,-0.634 m 0.449,1.612 -0.747,-0.864 v 0.864 h -0.255 v -1.853 h 0.599 a 0.54493,0.54493 0 0 1 0.573,0.547 0.53638,0.53638 0 0 1 -0.527,0.531 l 0.682,0.775 z"
       id="path4527"
       style="fill:#626665" />
    <path
       class="cls-2"
       d="m 48.750882,33.504915 a 0.95,0.95 0 0 1 -0.938,-0.957 0.9279,0.9279 0 0 1 0.941,-0.956 0.97743,0.97743 0 0 1 0.682,0.251 l -0.154,0.189 a 0.7669,0.7669 0 0 0 -0.532,-0.19 0.66723,0.66723 0 0 0 -0.673,0.709 0.70463,0.70463 0 0 0 0.683,0.706 0.54524,0.54524 0 0 0 0.545,-0.374 h -0.559 v -0.237 h 0.853 a 0.84942,0.84942 0 0 1 -0.848,0.859"
       id="path4529"
       style="fill:#626665" />
    <path
       class="cls-3"
       d="m 44.676302,17.427215 a 0.70478,0.70478 0 0 1 -0.631,-0.393 h -0.08 v 7.926 a 0.709,0.709 0 0 0 1.418,0 v -7.926 h -0.08 a 0.6988,0.6988 0 0 1 -0.627,0.393"
       id="path4531"
       style="fill:#17a8e1" />
    <path
       class="cls-4"
       d="m 39.580112,19.178105 a 0.69439,0.69439 0 0 1 -0.627,-0.392 h -0.08 v 6.174 a 0.707,0.707 0 1 0 1.414,0 v -6.174 h -0.079 a 0.69588,0.69588 0 0 1 -0.628,0.392"
       id="path4533"
       style="fill:#ed3028" />
    <path
       class="cls-4"
       d="m 38.871402,17.755315 a 0.70949,0.70949 0 1 1 0.71,0.709 0.70866,0.70866 0 0 1 -0.71,-0.709"
       id="path4535"
       style="fill:#ed3028" />
    <path
       class="cls-4"
       d="m 31.200602,25.667725 v 0 a 0.70693,0.70693 0 0 1 -0.707,-0.707 v -5.467 a 0.708,0.708 0 1 1 1.416,0 v 6.174 h -0.709"
       id="path4537"
       style="fill:#ed3028" />
    <path
       class="cls-4"
       d="m 32.290602,25.667725 v 0 -6.174 a 0.7075,0.7075 0 1 1 1.415,0 v 6.174 h 0.002 c -0.336,0 -0.412,-0.387 -0.412,-0.767 a 0.76073,0.76073 0 0 1 -0.708,0.767 h -0.295"
       id="path4539"
       style="fill:#ed3028" />
    <path
       class="cls-4"
       d="m 37.193122,18.786105 v 0 a 0.70846,0.70846 0 0 1 0.707,0.708 v 5.467 a 0.708,0.708 0 0 1 -1.416,0 v -6.175 h 0.709"
       id="path4541"
       style="fill:#ed3028" />
    <path
       class="cls-4"
       d="m 36.101102,18.786105 h 0.001 v 6.175 a 0.708,0.708 0 0 1 -1.416,0 v -6.175 c 0.334,0 0.412,0.389 0.412,0.769 h -10e-4 a 0.76282,0.76282 0 0 1 0.709,-0.769 h 0.295"
       id="path4543"
       style="fill:#ed3028" />
    <path
       class="cls-3"
       d="m 47.067992,25.667725 v 0 a 0.70628,0.70628 0 0 1 -0.707,-0.707 v -5.467 a 0.708,0.708 0 1 1 1.416,0 v 6.174 h -0.709"
       id="path4545"
       style="fill:#17a8e1" />
    <path
       class="cls-3"
       d="m 48.160002,25.667725 h -10e-4 v -6.174 a 0.707,0.707 0 1 1 1.414,0 v 6.174 h 0.002 c -0.334,0 -0.412,-0.389 -0.412,-0.767 h 0.001 a 0.76161,0.76161 0 0 1 -0.709,0.767 h -0.295"
       id="path4547"
       style="fill:#17a8e1" />
    <path
       class="cls-3"
       d="m 41.422092,24.959625 a 0.70949,0.70949 0 1 1 0.71,0.708 0.70887,0.70887 0 0 1 -0.71,-0.708"
       id="path4549"
       style="fill:#17a8e1" />
  </g>
</svg>
